
    <svg xmlns="http://www.w3.org/2000/svg" viewBox="0 0 1024 1024" width="1024" height="1024">
      <defs>
        <radialGradient id="ring-glow" cx="50%" cy="50%" r="50%">
          <stop offset="60%" stop-color="#FFAA33" stop-opacity="0"/>
          <stop offset="85%" stop-color="#FFAA33" stop-opacity="0.15"/>
          <stop offset="100%" stop-color="#FFAA33" stop-opacity="0"/>
        </radialGradient>
      </defs>
      <!-- Subtle ambient halo behind mandala -->
      <circle cx="512" cy="512" r="490" fill="url(#ring-glow)"/>
      <!-- Concentric boundary guide circles -->
      <circle cx="512" cy="512" r="392" fill="none" stroke="#E09F55" stroke-width="2.5" opacity="0.9"/>
      <circle cx="512" cy="512" r="372" fill="none" stroke="#E09F55" stroke-width="2" opacity="0.75"/>
      <!-- Beads -->
      <circle cx="894.00" cy="512.00" r="4.2" fill="#FCE6D8" opacity="0.9"/>
<circle cx="890.73" cy="561.86" r="4.2" fill="#FCE6D8" opacity="0.9"/>
<circle cx="880.98" cy="610.87" r="4.2" fill="#FCE6D8" opacity="0.9"/>
<circle cx="864.92" cy="658.19" r="4.2" fill="#FCE6D8" opacity="0.9"/>
<circle cx="842.82" cy="703.00" r="4.2" fill="#FCE6D8" opacity="0.9"/>
<circle cx="815.06" cy="744.55" r="4.2" fill="#FCE6D8" opacity="0.9"/>
<circle cx="782.11" cy="782.11" r="4.2" fill="#FCE6D8" opacity="0.9"/>
<circle cx="744.55" cy="815.06" r="4.2" fill="#FCE6D8" opacity="0.9"/>
<circle cx="703.00" cy="842.82" r="4.2" fill="#FCE6D8" opacity="0.9"/>
<circle cx="658.19" cy="864.92" r="4.2" fill="#FCE6D8" opacity="0.9"/>
<circle cx="610.87" cy="880.98" r="4.2" fill="#FCE6D8" opacity="0.9"/>
<circle cx="561.86" cy="890.73" r="4.2" fill="#FCE6D8" opacity="0.9"/>
<circle cx="512.00" cy="894.00" r="4.2" fill="#FCE6D8" opacity="0.9"/>
<circle cx="462.14" cy="890.73" r="4.2" fill="#FCE6D8" opacity="0.9"/>
<circle cx="413.13" cy="880.98" r="4.2" fill="#FCE6D8" opacity="0.9"/>
<circle cx="365.81" cy="864.92" r="4.2" fill="#FCE6D8" opacity="0.9"/>
<circle cx="321.00" cy="842.82" r="4.2" fill="#FCE6D8" opacity="0.9"/>
<circle cx="279.45" cy="815.06" r="4.2" fill="#FCE6D8" opacity="0.9"/>
<circle cx="241.89" cy="782.11" r="4.2" fill="#FCE6D8" opacity="0.9"/>
<circle cx="208.94" cy="744.55" r="4.2" fill="#FCE6D8" opacity="0.9"/>
<circle cx="181.18" cy="703.00" r="4.2" fill="#FCE6D8" opacity="0.9"/>
<circle cx="159.08" cy="658.19" r="4.2" fill="#FCE6D8" opacity="0.9"/>
<circle cx="143.02" cy="610.87" r="4.2" fill="#FCE6D8" opacity="0.9"/>
<circle cx="133.27" cy="561.86" r="4.2" fill="#FCE6D8" opacity="0.9"/>
<circle cx="130.00" cy="512.00" r="4.2" fill="#FCE6D8" opacity="0.9"/>
<circle cx="133.27" cy="462.14" r="4.2" fill="#FCE6D8" opacity="0.9"/>
<circle cx="143.02" cy="413.13" r="4.2" fill="#FCE6D8" opacity="0.9"/>
<circle cx="159.08" cy="365.81" r="4.2" fill="#FCE6D8" opacity="0.9"/>
<circle cx="181.18" cy="321.00" r="4.2" fill="#FCE6D8" opacity="0.9"/>
<circle cx="208.94" cy="279.45" r="4.2" fill="#FCE6D8" opacity="0.9"/>
<circle cx="241.89" cy="241.89" r="4.2" fill="#FCE6D8" opacity="0.9"/>
<circle cx="279.45" cy="208.94" r="4.2" fill="#FCE6D8" opacity="0.9"/>
<circle cx="321.00" cy="181.18" r="4.2" fill="#FCE6D8" opacity="0.9"/>
<circle cx="365.81" cy="159.08" r="4.2" fill="#FCE6D8" opacity="0.9"/>
<circle cx="413.13" cy="143.02" r="4.2" fill="#FCE6D8" opacity="0.9"/>
<circle cx="462.14" cy="133.27" r="4.2" fill="#FCE6D8" opacity="0.9"/>
<circle cx="512.00" cy="130.00" r="4.2" fill="#FCE6D8" opacity="0.9"/>
<circle cx="561.86" cy="133.27" r="4.2" fill="#FCE6D8" opacity="0.9"/>
<circle cx="610.87" cy="143.02" r="4.2" fill="#FCE6D8" opacity="0.9"/>
<circle cx="658.19" cy="159.08" r="4.2" fill="#FCE6D8" opacity="0.9"/>
<circle cx="703.00" cy="181.18" r="4.2" fill="#FCE6D8" opacity="0.9"/>
<circle cx="744.55" cy="208.94" r="4.2" fill="#FCE6D8" opacity="0.9"/>
<circle cx="782.11" cy="241.89" r="4.2" fill="#FCE6D8" opacity="0.9"/>
<circle cx="815.06" cy="279.45" r="4.2" fill="#FCE6D8" opacity="0.9"/>
<circle cx="842.82" cy="321.00" r="4.2" fill="#FCE6D8" opacity="0.9"/>
<circle cx="864.92" cy="365.81" r="4.2" fill="#FCE6D8" opacity="0.9"/>
<circle cx="880.98" cy="413.13" r="4.2" fill="#FCE6D8" opacity="0.9"/>
<circle cx="890.73" cy="462.14" r="4.2" fill="#FCE6D8" opacity="0.9"/>

      <!-- 24 Petals -->
      
      <g transform="rotate(0 512 512)">
        <!-- Main lotus petal -->
        <path d="M 488 120 C 474 77, 494 37, 512 27 C 530 37, 550 77, 536 120 Z"
              fill="rgba(244, 178, 102, 0.08)" stroke="#F4B266" stroke-width="2.2" stroke-linejoin="round"/>
        <!-- Inner petal vein -->
        <path d="M 512 117 L 512 36" stroke="#F4B266" stroke-width="1.4" opacity="0.75"/>
        <!-- Secondary inter-petal scallop arch -->
        <path d="M 534 117 C 548 94, 554 94, 568 117"
              fill="none" stroke="#F4B266" stroke-width="1.8" opacity="0.85"/>
      </g>
    
      <g transform="rotate(15 512 512)">
        <!-- Main lotus petal -->
        <path d="M 488 120 C 474 77, 494 37, 512 27 C 530 37, 550 77, 536 120 Z"
              fill="rgba(244, 178, 102, 0.08)" stroke="#F4B266" stroke-width="2.2" stroke-linejoin="round"/>
        <!-- Inner petal vein -->
        <path d="M 512 117 L 512 36" stroke="#F4B266" stroke-width="1.4" opacity="0.75"/>
        <!-- Secondary inter-petal scallop arch -->
        <path d="M 534 117 C 548 94, 554 94, 568 117"
              fill="none" stroke="#F4B266" stroke-width="1.8" opacity="0.85"/>
      </g>
    
      <g transform="rotate(30 512 512)">
        <!-- Main lotus petal -->
        <path d="M 488 120 C 474 77, 494 37, 512 27 C 530 37, 550 77, 536 120 Z"
              fill="rgba(244, 178, 102, 0.08)" stroke="#F4B266" stroke-width="2.2" stroke-linejoin="round"/>
        <!-- Inner petal vein -->
        <path d="M 512 117 L 512 36" stroke="#F4B266" stroke-width="1.4" opacity="0.75"/>
        <!-- Secondary inter-petal scallop arch -->
        <path d="M 534 117 C 548 94, 554 94, 568 117"
              fill="none" stroke="#F4B266" stroke-width="1.8" opacity="0.85"/>
      </g>
    
      <g transform="rotate(45 512 512)">
        <!-- Main lotus petal -->
        <path d="M 488 120 C 474 77, 494 37, 512 27 C 530 37, 550 77, 536 120 Z"
              fill="rgba(244, 178, 102, 0.08)" stroke="#F4B266" stroke-width="2.2" stroke-linejoin="round"/>
        <!-- Inner petal vein -->
        <path d="M 512 117 L 512 36" stroke="#F4B266" stroke-width="1.4" opacity="0.75"/>
        <!-- Secondary inter-petal scallop arch -->
        <path d="M 534 117 C 548 94, 554 94, 568 117"
              fill="none" stroke="#F4B266" stroke-width="1.8" opacity="0.85"/>
      </g>
    
      <g transform="rotate(60 512 512)">
        <!-- Main lotus petal -->
        <path d="M 488 120 C 474 77, 494 37, 512 27 C 530 37, 550 77, 536 120 Z"
              fill="rgba(244, 178, 102, 0.08)" stroke="#F4B266" stroke-width="2.2" stroke-linejoin="round"/>
        <!-- Inner petal vein -->
        <path d="M 512 117 L 512 36" stroke="#F4B266" stroke-width="1.4" opacity="0.75"/>
        <!-- Secondary inter-petal scallop arch -->
        <path d="M 534 117 C 548 94, 554 94, 568 117"
              fill="none" stroke="#F4B266" stroke-width="1.8" opacity="0.85"/>
      </g>
    
      <g transform="rotate(75 512 512)">
        <!-- Main lotus petal -->
        <path d="M 488 120 C 474 77, 494 37, 512 27 C 530 37, 550 77, 536 120 Z"
              fill="rgba(244, 178, 102, 0.08)" stroke="#F4B266" stroke-width="2.2" stroke-linejoin="round"/>
        <!-- Inner petal vein -->
        <path d="M 512 117 L 512 36" stroke="#F4B266" stroke-width="1.4" opacity="0.75"/>
        <!-- Secondary inter-petal scallop arch -->
        <path d="M 534 117 C 548 94, 554 94, 568 117"
              fill="none" stroke="#F4B266" stroke-width="1.8" opacity="0.85"/>
      </g>
    
      <g transform="rotate(90 512 512)">
        <!-- Main lotus petal -->
        <path d="M 488 120 C 474 77, 494 37, 512 27 C 530 37, 550 77, 536 120 Z"
              fill="rgba(244, 178, 102, 0.08)" stroke="#F4B266" stroke-width="2.2" stroke-linejoin="round"/>
        <!-- Inner petal vein -->
        <path d="M 512 117 L 512 36" stroke="#F4B266" stroke-width="1.4" opacity="0.75"/>
        <!-- Secondary inter-petal scallop arch -->
        <path d="M 534 117 C 548 94, 554 94, 568 117"
              fill="none" stroke="#F4B266" stroke-width="1.8" opacity="0.85"/>
      </g>
    
      <g transform="rotate(105 512 512)">
        <!-- Main lotus petal -->
        <path d="M 488 120 C 474 77, 494 37, 512 27 C 530 37, 550 77, 536 120 Z"
              fill="rgba(244, 178, 102, 0.08)" stroke="#F4B266" stroke-width="2.2" stroke-linejoin="round"/>
        <!-- Inner petal vein -->
        <path d="M 512 117 L 512 36" stroke="#F4B266" stroke-width="1.4" opacity="0.75"/>
        <!-- Secondary inter-petal scallop arch -->
        <path d="M 534 117 C 548 94, 554 94, 568 117"
              fill="none" stroke="#F4B266" stroke-width="1.8" opacity="0.85"/>
      </g>
    
      <g transform="rotate(120 512 512)">
        <!-- Main lotus petal -->
        <path d="M 488 120 C 474 77, 494 37, 512 27 C 530 37, 550 77, 536 120 Z"
              fill="rgba(244, 178, 102, 0.08)" stroke="#F4B266" stroke-width="2.2" stroke-linejoin="round"/>
        <!-- Inner petal vein -->
        <path d="M 512 117 L 512 36" stroke="#F4B266" stroke-width="1.4" opacity="0.75"/>
        <!-- Secondary inter-petal scallop arch -->
        <path d="M 534 117 C 548 94, 554 94, 568 117"
              fill="none" stroke="#F4B266" stroke-width="1.8" opacity="0.85"/>
      </g>
    
      <g transform="rotate(135 512 512)">
        <!-- Main lotus petal -->
        <path d="M 488 120 C 474 77, 494 37, 512 27 C 530 37, 550 77, 536 120 Z"
              fill="rgba(244, 178, 102, 0.08)" stroke="#F4B266" stroke-width="2.2" stroke-linejoin="round"/>
        <!-- Inner petal vein -->
        <path d="M 512 117 L 512 36" stroke="#F4B266" stroke-width="1.4" opacity="0.75"/>
        <!-- Secondary inter-petal scallop arch -->
        <path d="M 534 117 C 548 94, 554 94, 568 117"
              fill="none" stroke="#F4B266" stroke-width="1.8" opacity="0.85"/>
      </g>
    
      <g transform="rotate(150 512 512)">
        <!-- Main lotus petal -->
        <path d="M 488 120 C 474 77, 494 37, 512 27 C 530 37, 550 77, 536 120 Z"
              fill="rgba(244, 178, 102, 0.08)" stroke="#F4B266" stroke-width="2.2" stroke-linejoin="round"/>
        <!-- Inner petal vein -->
        <path d="M 512 117 L 512 36" stroke="#F4B266" stroke-width="1.4" opacity="0.75"/>
        <!-- Secondary inter-petal scallop arch -->
        <path d="M 534 117 C 548 94, 554 94, 568 117"
              fill="none" stroke="#F4B266" stroke-width="1.8" opacity="0.85"/>
      </g>
    
      <g transform="rotate(165 512 512)">
        <!-- Main lotus petal -->
        <path d="M 488 120 C 474 77, 494 37, 512 27 C 530 37, 550 77, 536 120 Z"
              fill="rgba(244, 178, 102, 0.08)" stroke="#F4B266" stroke-width="2.2" stroke-linejoin="round"/>
        <!-- Inner petal vein -->
        <path d="M 512 117 L 512 36" stroke="#F4B266" stroke-width="1.4" opacity="0.75"/>
        <!-- Secondary inter-petal scallop arch -->
        <path d="M 534 117 C 548 94, 554 94, 568 117"
              fill="none" stroke="#F4B266" stroke-width="1.8" opacity="0.85"/>
      </g>
    
      <g transform="rotate(180 512 512)">
        <!-- Main lotus petal -->
        <path d="M 488 120 C 474 77, 494 37, 512 27 C 530 37, 550 77, 536 120 Z"
              fill="rgba(244, 178, 102, 0.08)" stroke="#F4B266" stroke-width="2.2" stroke-linejoin="round"/>
        <!-- Inner petal vein -->
        <path d="M 512 117 L 512 36" stroke="#F4B266" stroke-width="1.4" opacity="0.75"/>
        <!-- Secondary inter-petal scallop arch -->
        <path d="M 534 117 C 548 94, 554 94, 568 117"
              fill="none" stroke="#F4B266" stroke-width="1.8" opacity="0.85"/>
      </g>
    
      <g transform="rotate(195 512 512)">
        <!-- Main lotus petal -->
        <path d="M 488 120 C 474 77, 494 37, 512 27 C 530 37, 550 77, 536 120 Z"
              fill="rgba(244, 178, 102, 0.08)" stroke="#F4B266" stroke-width="2.2" stroke-linejoin="round"/>
        <!-- Inner petal vein -->
        <path d="M 512 117 L 512 36" stroke="#F4B266" stroke-width="1.4" opacity="0.75"/>
        <!-- Secondary inter-petal scallop arch -->
        <path d="M 534 117 C 548 94, 554 94, 568 117"
              fill="none" stroke="#F4B266" stroke-width="1.8" opacity="0.85"/>
      </g>
    
      <g transform="rotate(210 512 512)">
        <!-- Main lotus petal -->
        <path d="M 488 120 C 474 77, 494 37, 512 27 C 530 37, 550 77, 536 120 Z"
              fill="rgba(244, 178, 102, 0.08)" stroke="#F4B266" stroke-width="2.2" stroke-linejoin="round"/>
        <!-- Inner petal vein -->
        <path d="M 512 117 L 512 36" stroke="#F4B266" stroke-width="1.4" opacity="0.75"/>
        <!-- Secondary inter-petal scallop arch -->
        <path d="M 534 117 C 548 94, 554 94, 568 117"
              fill="none" stroke="#F4B266" stroke-width="1.8" opacity="0.85"/>
      </g>
    
      <g transform="rotate(225 512 512)">
        <!-- Main lotus petal -->
        <path d="M 488 120 C 474 77, 494 37, 512 27 C 530 37, 550 77, 536 120 Z"
              fill="rgba(244, 178, 102, 0.08)" stroke="#F4B266" stroke-width="2.2" stroke-linejoin="round"/>
        <!-- Inner petal vein -->
        <path d="M 512 117 L 512 36" stroke="#F4B266" stroke-width="1.4" opacity="0.75"/>
        <!-- Secondary inter-petal scallop arch -->
        <path d="M 534 117 C 548 94, 554 94, 568 117"
              fill="none" stroke="#F4B266" stroke-width="1.8" opacity="0.85"/>
      </g>
    
      <g transform="rotate(240 512 512)">
        <!-- Main lotus petal -->
        <path d="M 488 120 C 474 77, 494 37, 512 27 C 530 37, 550 77, 536 120 Z"
              fill="rgba(244, 178, 102, 0.08)" stroke="#F4B266" stroke-width="2.2" stroke-linejoin="round"/>
        <!-- Inner petal vein -->
        <path d="M 512 117 L 512 36" stroke="#F4B266" stroke-width="1.4" opacity="0.75"/>
        <!-- Secondary inter-petal scallop arch -->
        <path d="M 534 117 C 548 94, 554 94, 568 117"
              fill="none" stroke="#F4B266" stroke-width="1.8" opacity="0.85"/>
      </g>
    
      <g transform="rotate(255 512 512)">
        <!-- Main lotus petal -->
        <path d="M 488 120 C 474 77, 494 37, 512 27 C 530 37, 550 77, 536 120 Z"
              fill="rgba(244, 178, 102, 0.08)" stroke="#F4B266" stroke-width="2.2" stroke-linejoin="round"/>
        <!-- Inner petal vein -->
        <path d="M 512 117 L 512 36" stroke="#F4B266" stroke-width="1.4" opacity="0.75"/>
        <!-- Secondary inter-petal scallop arch -->
        <path d="M 534 117 C 548 94, 554 94, 568 117"
              fill="none" stroke="#F4B266" stroke-width="1.8" opacity="0.85"/>
      </g>
    
      <g transform="rotate(270 512 512)">
        <!-- Main lotus petal -->
        <path d="M 488 120 C 474 77, 494 37, 512 27 C 530 37, 550 77, 536 120 Z"
              fill="rgba(244, 178, 102, 0.08)" stroke="#F4B266" stroke-width="2.2" stroke-linejoin="round"/>
        <!-- Inner petal vein -->
        <path d="M 512 117 L 512 36" stroke="#F4B266" stroke-width="1.4" opacity="0.75"/>
        <!-- Secondary inter-petal scallop arch -->
        <path d="M 534 117 C 548 94, 554 94, 568 117"
              fill="none" stroke="#F4B266" stroke-width="1.8" opacity="0.85"/>
      </g>
    
      <g transform="rotate(285 512 512)">
        <!-- Main lotus petal -->
        <path d="M 488 120 C 474 77, 494 37, 512 27 C 530 37, 550 77, 536 120 Z"
              fill="rgba(244, 178, 102, 0.08)" stroke="#F4B266" stroke-width="2.2" stroke-linejoin="round"/>
        <!-- Inner petal vein -->
        <path d="M 512 117 L 512 36" stroke="#F4B266" stroke-width="1.4" opacity="0.75"/>
        <!-- Secondary inter-petal scallop arch -->
        <path d="M 534 117 C 548 94, 554 94, 568 117"
              fill="none" stroke="#F4B266" stroke-width="1.8" opacity="0.85"/>
      </g>
    
      <g transform="rotate(300 512 512)">
        <!-- Main lotus petal -->
        <path d="M 488 120 C 474 77, 494 37, 512 27 C 530 37, 550 77, 536 120 Z"
              fill="rgba(244, 178, 102, 0.08)" stroke="#F4B266" stroke-width="2.2" stroke-linejoin="round"/>
        <!-- Inner petal vein -->
        <path d="M 512 117 L 512 36" stroke="#F4B266" stroke-width="1.4" opacity="0.75"/>
        <!-- Secondary inter-petal scallop arch -->
        <path d="M 534 117 C 548 94, 554 94, 568 117"
              fill="none" stroke="#F4B266" stroke-width="1.8" opacity="0.85"/>
      </g>
    
      <g transform="rotate(315 512 512)">
        <!-- Main lotus petal -->
        <path d="M 488 120 C 474 77, 494 37, 512 27 C 530 37, 550 77, 536 120 Z"
              fill="rgba(244, 178, 102, 0.08)" stroke="#F4B266" stroke-width="2.2" stroke-linejoin="round"/>
        <!-- Inner petal vein -->
        <path d="M 512 117 L 512 36" stroke="#F4B266" stroke-width="1.4" opacity="0.75"/>
        <!-- Secondary inter-petal scallop arch -->
        <path d="M 534 117 C 548 94, 554 94, 568 117"
              fill="none" stroke="#F4B266" stroke-width="1.8" opacity="0.85"/>
      </g>
    
      <g transform="rotate(330 512 512)">
        <!-- Main lotus petal -->
        <path d="M 488 120 C 474 77, 494 37, 512 27 C 530 37, 550 77, 536 120 Z"
              fill="rgba(244, 178, 102, 0.08)" stroke="#F4B266" stroke-width="2.2" stroke-linejoin="round"/>
        <!-- Inner petal vein -->
        <path d="M 512 117 L 512 36" stroke="#F4B266" stroke-width="1.4" opacity="0.75"/>
        <!-- Secondary inter-petal scallop arch -->
        <path d="M 534 117 C 548 94, 554 94, 568 117"
              fill="none" stroke="#F4B266" stroke-width="1.8" opacity="0.85"/>
      </g>
    
      <g transform="rotate(345 512 512)">
        <!-- Main lotus petal -->
        <path d="M 488 120 C 474 77, 494 37, 512 27 C 530 37, 550 77, 536 120 Z"
              fill="rgba(244, 178, 102, 0.08)" stroke="#F4B266" stroke-width="2.2" stroke-linejoin="round"/>
        <!-- Inner petal vein -->
        <path d="M 512 117 L 512 36" stroke="#F4B266" stroke-width="1.4" opacity="0.75"/>
        <!-- Secondary inter-petal scallop arch -->
        <path d="M 534 117 C 548 94, 554 94, 568 117"
              fill="none" stroke="#F4B266" stroke-width="1.8" opacity="0.85"/>
      </g>
    
    </svg>
  